<svg width="25" height="25" viewBox="0 0 25 25" fill="none" xmlns="http://www.w3.org/2000/svg">
<path d="M7.33334 22.5C6.78334 22.5 6.31251 22.3042 5.92084 21.9125C5.52918 21.5208 5.33334 21.05 5.33334 20.5C5.33334 19.95 5.52918 19.4792 5.92084 19.0875C6.31251 18.6958 6.78334 18.5 7.33334 18.5C7.88334 18.5 8.35418 18.6958 8.74584 19.0875C9.13751 19.4792 9.33334 19.95 9.33334 20.5C9.33334 21.05 9.13751 21.5208 8.74584 21.9125C8.35418 22.3042 7.88334 22.5 7.33334 22.5ZM17.3333 22.5C16.7833 22.5 16.3125 22.3042 15.9208 21.9125C15.5292 21.5208 15.3333 21.05 15.3333 20.5C15.3333 19.95 15.5292 19.4792 15.9208 19.0875C16.3125 18.6958 16.7833 18.5 17.3333 18.5C17.8833 18.5 18.3542 18.6958 18.7458 19.0875C19.1375 19.4792 19.3333 19.95 19.3333 20.5C19.3333 21.05 19.1375 21.5208 18.7458 21.9125C18.3542 22.3042 17.8833 22.5 17.3333 22.5ZM6.48334 6.5L8.88334 11.5H15.8833L18.6333 6.5H6.48334ZM5.53334 4.5H20.2833C20.6667 4.5 20.9583 4.67083 21.1583 5.0125C21.3583 5.35417 21.3667 5.7 21.1833 6.05L17.6333 12.45C17.45 12.7833 17.2042 13.0417 16.8958 13.225C16.5875 13.4083 16.25 13.5 15.8833 13.5H8.43334L7.33334 15.5H19.3333V17.5H7.33334C6.58334 17.5 6.01668 17.1708 5.63334 16.5125C5.25001 15.8542 5.23334 15.2 5.58334 14.55L6.93334 12.1L3.33334 4.5H1.33334V2.5H4.58334L5.53334 4.5Z" fill="#7D7D7D"/>
</svg>
